<svg width="45" height="43" viewBox="0 0 45 43" fill="none" xmlns="http://www.w3.org/2000/svg">
<path d="M21.3571 22.5525L1.5331 1.70665C1.22625 1.38398 1.45498 0.85083 1.90026 0.85083H22.9227C23.5366 0.85083 24.1052 1.1651 24.4271 1.68789C27.9251 7.36742 33.775 17.1374 34.7611 18.6164C36.8887 21.8078 34.1137 24.4673 33.3781 26.8077C32.2079 30.531 29.7186 38.4883 29.1229 40.5308C28.5272 42.5733 28.2364 42.8712 28.1655 42.7648C25.2577 42.9421 19.272 43.1904 18.5912 42.7648C17.9104 42.3393 18.3075 40.5308 18.5912 39.6798C18.804 35.9565 20.2933 26.9141 21.3571 25.3184C22.2081 24.0418 21.7117 22.9426 21.3571 22.5525Z" fill="#7CBC39"/>
<path d="M10.9316 2.97827L24.442 17.0205C23.0922 18.6818 22.5328 21.8025 25.1973 22.9007C25.3244 22.9531 25.4686 22.9425 25.5928 22.8837C26.5122 22.4486 27.4413 22.201 28.517 22.5522C28.6956 22.6105 28.8966 22.5863 29.0286 22.4525C29.7928 21.6774 30.5459 20.0883 28.8036 17.7652C27.7509 16.3616 22.208 8.86467 19.0166 4.57398" stroke="white" stroke-width="1.26666" stroke-linecap="round"/>
<path d="M22.8464 42.3394C23.2398 38.7005 24.2807 30.9146 25.2974 28.8818C24.662 27.7525 24.0629 25.381 26.7499 24.9293C27.6879 24.7724 29.5822 25.0422 29.6548 27.3761C29.5338 28.129 29.1828 29.7288 28.747 30.1053L26.3868 36.9752" stroke="white" stroke-width="1.26666" stroke-linecap="round"/>
<path d="M27.6038 0.928748C31.6281 1.86966 35.2831 3.9828 38.1065 7.00095C40.9298 10.0191 42.7948 13.8067 43.4656 17.8848C44.1363 21.9628 43.5827 26.1482 41.8748 29.9117C40.1668 33.6751 37.3812 36.8476 33.8703 39.0279" stroke="#7CBC39" stroke-width="0.759995" stroke-linecap="round" stroke-dasharray="2.03 2.03"/>
<path d="M37.8462 19.2547L39.4419 17.1271" stroke="#7CBC39" stroke-width="1.26666" stroke-linecap="round"/>
<path d="M37.8462 24.0419L39.4419 26.1696" stroke="#7CBC39" stroke-width="1.26666" stroke-linecap="round"/>
<path d="M37.6333 21.7015H40.5056" stroke="#7CBC39" stroke-width="1.26666" stroke-linecap="round"/>
</svg>
