<svg width="75" height="75" viewBox="0 0 75 75" fill="none" xmlns="http://www.w3.org/2000/svg">
<circle cx="37.7324" cy="37.7321" r="36.9908" fill="url(#paint0_linear_2082_1742)"/>
<circle r="30.7786" transform="matrix(-1 0 0 1 37.7326 37.7318)" fill="white"/>
<circle r="30.2139" transform="matrix(-1 0 0 1 37.7325 37.7324)" fill="url(#paint1_linear_2082_1742)"/>
<g filter="url(#filter0_i_2082_1742)">
<path d="M40.1193 7.61298C32.4585 7.0059 24.8543 9.34078 18.8542 14.1424C12.8542 18.944 8.90925 25.8516 7.82235 33.4591C6.73544 41.0667 8.58824 48.8025 13.0037 55.0923C17.4191 61.382 24.0653 65.7528 31.5896 67.3153L32.9016 60.9968C26.9844 59.7681 21.7577 56.3308 18.2854 51.3844C14.8131 46.4381 13.356 40.3545 14.2107 34.3719C15.0655 28.3892 18.1678 22.957 22.8864 19.1809C27.6049 15.4048 33.585 13.5687 39.6095 14.0461L40.1193 7.61298Z" fill="#7CBC39"/>
</g>
<circle cx="37.7325" cy="37.7322" r="24.0017" fill="url(#paint2_linear_2082_1742)"/>
<g clip-path="url(#clip0_2082_1742)">
<path d="M42.0191 39.5153H45.9337C45.8909 39.5674 45.8481 39.613 45.8053 39.652C45.7625 39.6911 45.724 39.7236 45.6898 39.7497L45.6513 39.8018L37.6552 47.6143C37.5012 47.7705 37.313 47.8486 37.0905 47.8486C36.868 47.8486 36.6798 47.7705 36.5258 47.6143L28.5168 39.7757C28.474 39.7584 28.3842 39.6715 28.2473 39.5153H32.9833C33.1716 39.5153 33.3406 39.4567 33.4903 39.3395C33.6401 39.2223 33.7363 39.0726 33.7791 38.8903L34.6775 35.2314L37.1162 43.9163C37.1675 44.09 37.2659 44.2332 37.4114 44.346C37.5568 44.4589 37.7237 44.5153 37.9119 44.5153C38.0916 44.5153 38.2542 44.4589 38.3996 44.346C38.5451 44.2332 38.6435 44.09 38.6948 43.9163L40.5687 37.6012L41.2875 39.0596C41.4415 39.3634 41.6854 39.5153 42.0191 39.5153ZM48.5905 33.9424C48.5905 35.2011 48.1498 36.5031 47.2685 37.8486H42.5324L41.1078 34.971C41.0393 34.8235 40.9302 34.7063 40.7805 34.6195C40.6308 34.5327 40.4746 34.4979 40.312 34.5153C39.927 34.5587 39.6874 34.7584 39.5933 35.1143L37.9376 40.7132L35.422 31.7809C35.3706 31.6073 35.2701 31.4641 35.1203 31.3512C34.9706 31.2384 34.8016 31.182 34.6134 31.182C34.4251 31.182 34.2583 31.2406 34.1128 31.3577C33.9673 31.4749 33.8732 31.6247 33.8304 31.807L32.3416 37.8486H26.9125C26.0311 36.5031 25.5905 35.2011 25.5905 33.9424C25.5905 32.0327 26.1338 30.5396 27.2205 29.4632C28.3072 28.3868 29.8089 27.8486 31.7255 27.8486C32.256 27.8486 32.7972 27.9419 33.3491 28.1286C33.901 28.3152 34.4144 28.5669 34.8893 28.8838C35.3642 29.2006 35.7728 29.4979 36.115 29.7757C36.4573 30.0535 36.7824 30.3486 37.0905 30.6611C37.3985 30.3486 37.7237 30.0535 38.0659 29.7757C38.4082 29.4979 38.8168 29.2006 39.2917 28.8838C39.7665 28.5669 40.2799 28.3152 40.8318 28.1286C41.3837 27.9419 41.9249 27.8486 42.4554 27.8486C44.3721 27.8486 45.8738 28.3868 46.9605 29.4632C48.0471 30.5396 48.5905 32.0327 48.5905 33.9424Z" fill="#7CBC39"/>
</g>
<defs>
<filter id="filter0_i_2082_1742" x="7.51852" y="7.51855" width="33.6825" height="59.7969" filterUnits="userSpaceOnUse" color-interpolation-filters="sRGB">
<feFlood flood-opacity="0" result="BackgroundImageFix"/>
<feBlend mode="normal" in="SourceGraphic" in2="BackgroundImageFix" result="shape"/>
<feColorMatrix in="SourceAlpha" type="matrix" values="0 0 0 0 0 0 0 0 0 0 0 0 0 0 0 0 0 0 127 0" result="hardAlpha"/>
<feOffset dx="1.08165"/>
<feGaussianBlur stdDeviation="1.08165"/>
<feComposite in2="hardAlpha" operator="arithmetic" k2="-1" k3="1"/>
<feColorMatrix type="matrix" values="0 0 0 0 0 0 0 0 0 0 0 0 0 0 0 0 0 0 0.14 0"/>
<feBlend mode="normal" in2="shape" result="effect1_innerShadow_2082_1742"/>
</filter>
<linearGradient id="paint0_linear_2082_1742" x1="74.7233" y1="39.3288" x2="0.741592" y2="39.3288" gradientUnits="userSpaceOnUse">
<stop stop-color="#EAEAEA"/>
<stop offset="1" stop-color="white"/>
</linearGradient>
<linearGradient id="paint1_linear_2082_1742" x1="60.4278" y1="31.5181" x2="-1.79491e-07" y2="31.5181" gradientUnits="userSpaceOnUse">
<stop stop-color="#F1F1F1"/>
<stop offset="1" stop-color="white"/>
</linearGradient>
<linearGradient id="paint2_linear_2082_1742" x1="61.7342" y1="38.7682" x2="13.7308" y2="38.7682" gradientUnits="userSpaceOnUse">
<stop stop-color="#DCDCDC"/>
<stop offset="1" stop-color="white"/>
</linearGradient>
<clipPath id="clip0_2082_1742">
<rect width="23" height="20" fill="white" transform="translate(25.5905 27.8486)"/>
</clipPath>
</defs>
</svg>
