<svg width="23" height="26" viewBox="0 0 23 26" fill="none" xmlns="http://www.w3.org/2000/svg">
<path d="M18.4463 4.08903C18.4463 4.08903 19.1618 4.78347 18.4463 4.08903C17.4872 3.00517 16.9586 1.61324 16.959 0.172363H12.6236V17.3946C12.5901 18.3266 12.1926 19.2093 11.5148 19.857C10.837 20.5047 9.93172 20.8667 8.98964 20.8668C6.99729 20.8668 5.34168 19.2557 5.34168 17.2557C5.34168 14.8668 7.67076 13.0751 10.07 13.8113V9.42236C5.22943 8.78347 0.992188 12.5057 0.992188 17.2557C0.992188 21.8807 4.86464 25.1724 8.97561 25.1724C13.3812 25.1724 16.959 21.6307 16.959 17.2557V8.51959C18.7171 9.76938 20.8278 10.4399 22.9922 10.4363V6.14459C22.9922 6.14459 20.3544 6.26959 18.4463 4.08903Z" fill="#E8E8E8"/>
</svg>
