<svg width="43" height="35" viewBox="0 0 43 35" fill="none" xmlns="http://www.w3.org/2000/svg">
<path d="M1.04224 9.59433L10.7897 1.96191C12.6595 7.29541 16.5216 18.3241 17.0121 19.7709C17.5025 21.2177 18.5651 21.5589 19.0351 21.5487H22.5601V30.1927H9.44097C8.38653 30.1927 7.83683 29.1301 7.69378 28.5988L1.04224 9.59433Z" fill="#FE5717"/>
<rect x="23.8474" y="21.3955" width="2.08436" height="9.01178" fill="#FE5717"/>
<path d="M8.73564 2.09589L1.56301 7.6133C1.2054 6.53025 0.416616 4.46837 0.122354 3.65915C-0.171908 2.84993 0.122355 2.46371 0.398224 2.3411C2.40084 1.67697 6.55933 0.293533 7.17238 0.0728364C7.78542 -0.14786 8.0613 0.185228 8.1226 0.379359L8.73564 2.09589Z" fill="#FE5717"/>
<path d="M4.41394 11.219L6.98873 18.7595" stroke="white" stroke-width="1.77164" stroke-linecap="round"/>
<path d="M8.21484 21.6404L9.19572 24.583" stroke="white" stroke-width="1.77164" stroke-linecap="round"/>
<path d="M28.813 22.2228L30.4989 21.4872" stroke="#FE5717" stroke-width="1.77164" stroke-linecap="round"/>
<path d="M33.1656 20.3533L34.8515 19.6177" stroke="#FE5717" stroke-width="1.77164" stroke-linecap="round"/>
<path d="M37.3342 18.6364L39.0201 17.9008" stroke="#FE5717" stroke-width="1.77164" stroke-linecap="round"/>
<path d="M28.8131 28.8749L30.499 29.6106" stroke="#FE5717" stroke-width="1.77164" stroke-linecap="round"/>
<path d="M33.1655 30.7442L34.8514 31.4799" stroke="#FE5717" stroke-width="1.77164" stroke-linecap="round"/>
<path d="M37.3345 32.4611L39.0203 33.1968" stroke="#FE5717" stroke-width="1.77164" stroke-linecap="round"/>
<path d="M30.5298 25.6281L32.3691 25.6106" stroke="#FE5717" stroke-width="1.77164" stroke-linecap="round"/>
<path d="M35.2663 25.5558L37.1056 25.5382" stroke="#FE5717" stroke-width="1.77164" stroke-linecap="round"/>
<path d="M39.7727 25.4188L41.612 25.4012" stroke="#FE5717" stroke-width="1.77164" stroke-linecap="round"/>
</svg>
