<svg width="25" height="25" viewBox="0 0 25 25" fill="none" xmlns="http://www.w3.org/2000/svg">
<path d="M10.1279 0C9.93536 0 9.76304 0.0416092 9.61173 0.125668C8.95733 0.255119 8.53788 0.670371 8.22812 0.976766C8.02218 1.18061 7.84439 1.35671 7.69057 1.35671H7.69015C7.49261 1.3441 7.31146 1.33654 7.1446 1.33654C6.00476 1.33654 5.4092 1.73372 4.86954 2.85464C4.85189 2.89079 4.83256 2.91391 4.81448 2.94207H5.14063C6.53139 2.94207 7.66241 4.07308 7.66241 5.46384C7.66241 5.69626 7.47411 5.88413 7.24211 5.88413C7.01011 5.88413 6.82181 5.69626 6.82181 5.46384C6.82181 4.53667 6.0678 3.78266 5.14063 3.78266H3.15642C2.13552 4.53835 1.50634 5.89716 1.58914 7.26564C1.62949 7.93307 1.44792 9.02878 1.12261 9.5344C0.321109 10.7818 0.321109 12.5244 1.12261 13.7718C1.2466 13.9643 1.42817 14.1883 1.63831 14.4481C2.01322 14.9112 2.64114 15.6858 2.6197 16.0406C2.5243 17.6108 3.48257 19.4202 4.75564 20.0737C4.9847 20.1914 5.02337 20.3103 5.10995 20.6705C5.11962 20.7096 5.13013 20.7521 5.14063 20.7949V20.2692C5.14063 18.6472 6.46036 17.3271 8.0827 17.3271C8.3147 17.3271 8.503 17.515 8.503 17.7474C8.503 17.9798 8.3147 18.1677 8.0827 18.1677C6.92395 18.1677 5.98122 19.1104 5.98122 20.2692V22.1428C6.20566 22.2979 6.43556 22.3862 6.63016 22.4602C7.02356 22.6094 7.18621 22.6716 7.24589 23.1028C7.40981 24.2905 8.11338 25 9.12797 25C10.6217 25 12.2857 23.402 12.2857 21.1097V5.55882C12.2857 5.79125 12.0974 5.97912 11.8654 5.97912C10.4746 5.97912 9.34359 7.11013 9.34359 8.50089C9.34359 10.3548 7.83515 11.8633 5.98122 11.8633C5.74922 11.8633 5.56093 11.6754 5.56093 11.443C5.56093 11.2105 5.74922 11.0227 5.98122 11.0227C7.37198 11.0227 8.503 9.89165 8.503 8.50089C8.503 6.64697 10.0114 5.13853 11.8654 5.13853C12.0974 5.13853 12.2857 5.3264 12.2857 5.55882V1.77617C12.2861 0.935997 10.9995 0 10.1279 0ZM8.92371 13.863C8.92371 13.0502 9.24061 12.2856 9.816 11.7107C9.98033 11.5464 10.246 11.5464 10.4103 11.7107C10.5746 11.875 10.5746 12.1406 10.4103 12.305C9.99378 12.7215 9.7643 13.275 9.7643 13.863C9.7643 14.451 9.99378 15.0045 10.4103 15.4211C10.5746 15.5854 10.5746 15.851 10.4103 16.0153C9.99378 16.4319 9.7643 16.9854 9.7643 17.5734C9.7643 18.1614 9.99378 18.7149 10.4103 19.1314C10.5746 19.2958 10.5746 19.5614 10.4103 19.7257C10.3283 19.8077 10.2207 19.8489 10.1131 19.8489C10.0056 19.8489 9.89796 19.8077 9.816 19.7257C9.24061 19.1508 8.92371 18.3858 8.92371 17.5734C8.92371 16.8933 9.14857 16.2486 9.55836 15.7182C9.14815 15.1886 8.92371 14.5435 8.92371 13.863ZM5.9165 14.9125C5.9165 14.9129 5.9165 14.9129 5.9165 14.9125C5.753 15.3567 5.98122 15.8514 6.42506 16.0149C6.64277 16.0956 6.75415 16.3373 6.67345 16.555C6.61083 16.7244 6.45027 16.8295 6.27921 16.8295C6.23088 16.8295 6.18171 16.8211 6.13337 16.8034C5.25495 16.4785 4.80398 15.5001 5.1276 14.6217C5.1276 14.6212 5.1276 14.6208 5.1276 14.6208C5.29152 14.177 5.0633 13.6823 4.61905 13.5184C4.40133 13.4381 4.28996 13.196 4.37065 12.9783C4.45093 12.7606 4.69386 12.65 4.91073 12.7295C5.78999 13.0552 6.24097 14.0341 5.9165 14.9125ZM6.68228 8.47189C6.42926 9.15739 5.7778 9.58273 5.08642 9.58273C4.8914 9.58273 4.69344 9.54869 4.5001 9.47766C4.05501 9.31248 3.56158 9.54154 3.39725 9.98579C3.33463 10.1552 3.17407 10.2602 3.00301 10.2602C2.95468 10.2602 2.9055 10.2518 2.85759 10.2342C2.63988 10.1539 2.5285 9.91182 2.60878 9.69411C2.93282 8.81569 3.91253 8.36598 4.79095 8.68834C5.23436 8.85268 5.72947 8.62488 5.8938 8.18021C5.97408 7.96249 6.21659 7.85153 6.43388 7.93139C6.65159 8.01209 6.76297 8.25418 6.68228 8.47189Z" fill="#FE5717"/>
<path d="M23.8774 9.43941C23.5525 8.93422 23.3705 7.83767 23.4113 7.17066C23.4941 5.80176 22.8649 4.44336 21.844 3.68767H19.8594C19.1642 3.68767 18.5985 4.25339 18.5985 4.94856C18.5985 5.18098 18.4102 5.36885 18.1782 5.36885C17.9462 5.36885 17.7579 5.18098 17.7579 4.94856C17.7579 3.7898 18.7006 2.84708 19.8594 2.84708H20.1855C20.1675 2.81892 20.1481 2.7958 20.1309 2.76008C19.5916 1.63915 18.9961 1.24197 17.8562 1.24197C17.6894 1.24197 17.5082 1.24954 17.3015 1.26257C17.1834 1.26257 16.9997 1.06545 16.8215 0.875475C16.51 0.542601 16.0939 0.0970882 15.4345 0.0214351L15.2223 0C13.863 0 12.7144 0.769981 12.7144 1.68118V21.0148C12.7144 23.3071 14.3783 24.9046 15.872 24.905C15.872 24.905 15.872 24.905 15.8725 24.905C16.8866 24.905 17.5898 24.1956 17.7541 23.0078C17.8138 22.5766 17.9765 22.5144 18.3698 22.3652C18.5644 22.2912 18.7943 22.2029 19.0188 22.0478V20.1742C19.0188 19.0154 18.0761 18.0727 16.9173 18.0727C16.6853 18.0727 16.497 17.8848 16.497 17.6524C16.497 17.42 16.6853 17.2321 16.9173 17.2321C18.5396 17.2321 19.8594 18.5523 19.8594 20.1742V20.7004C19.8703 20.6575 19.8808 20.6151 19.8905 20.5756C19.9775 20.2158 20.0157 20.096 20.2448 19.9787C21.5174 19.3252 22.4757 17.5166 22.3807 15.9456C22.3769 15.88 22.4009 15.7964 22.4358 15.7064L21.1812 14.251C20.7201 13.486 19.9119 13.0292 19.0188 13.0292C17.1649 13.0292 15.6564 11.5207 15.6564 9.66679C15.6564 9.43437 15.8447 9.2465 16.0767 9.2465C16.3087 9.2465 16.497 9.43437 16.497 9.66679C16.497 11.0575 17.628 12.1886 19.0188 12.1886C20.1969 12.1886 21.2644 12.785 21.8818 13.7861L22.8901 14.9545C23.0515 14.736 23.2238 14.5233 23.3617 14.3527C23.5718 14.0933 23.7534 13.8693 23.8774 13.6768C24.6789 12.4294 24.6789 10.6868 23.8774 9.43941ZM15.751 13.0203C16.8597 14.1295 16.8597 15.9342 15.751 17.043C15.3723 17.4217 15.1634 17.9252 15.1634 18.4598C15.1634 18.9944 15.3723 19.4979 15.751 19.8766C15.9153 20.0409 15.9153 20.3066 15.751 20.4709C15.669 20.5533 15.5614 20.5945 15.4538 20.5945C15.3462 20.5945 15.2386 20.5533 15.1567 20.4713C14.6191 19.9338 14.3228 19.2193 14.3228 18.4602C14.3228 17.7012 14.6191 16.9867 15.1567 16.4491C15.9376 15.6678 15.9376 14.3964 15.1567 13.615C14.9924 13.4507 14.9924 13.1851 15.1567 13.0207C15.321 12.8564 15.5871 12.8564 15.751 13.0203ZM20.7676 9.85172C20.602 9.8803 20.4373 9.89501 20.2746 9.89501C18.9196 9.89501 17.7163 8.92119 17.4738 7.54178C17.3809 7.01431 17.0888 6.5545 16.6508 6.24727C16.2125 5.94045 15.6812 5.82109 15.1533 5.91524C14.9243 5.95306 14.7066 5.80218 14.6666 5.57354C14.6263 5.34489 14.7793 5.12676 15.0079 5.08683C15.7573 4.95612 16.5117 5.1234 17.1333 5.55925C17.755 5.99509 18.1698 6.64781 18.3013 7.39636C18.4922 8.4845 19.5341 9.21581 20.6218 9.02332C20.8517 8.98339 21.0686 9.13638 21.1085 9.36502C21.1493 9.59366 20.9963 9.81179 20.7676 9.85172Z" fill="#FE5717"/>
</svg>
